<svg id="Capa_1" data-name="Capa 1" xmlns="http://www.w3.org/2000/svg" viewBox="0 0 30 35">
  <defs>
    <style>
      .cls-1 {
        fill: #29235c;
      }
    </style>
  </defs>
  <g>
    <path class="cls-1" d="M28.92468,27.36762h-.7158v-12.589a.42863.42863,0,0,0-.85725,0v12.589H23.7752a.42862.42862,0,0,0,0,.85724h4.97289v.181a1.11258,1.11258,0,0,1-1.11128,1.11128H2.36319a1.11253,1.11253,0,0,1-1.11127-1.11128v-.181H21.94858a.42862.42862,0,0,0,0-.85724H2.64843V10.43615a.56611.56611,0,0,1,.56549-.5655H17.25779a.42863.42863,0,0,0,0-.85725H3.21387a1.42437,1.42437,0,0,0-1.42275,1.42275V27.36762h-.7158a.68144.68144,0,0,0-.68065.68065v.35764a1.97076,1.97076,0,0,0,1.96852,1.96853H27.63681a1.97076,1.97076,0,0,0,1.96852-1.96853v-.35764A.68144.68144,0,0,0,28.92468,27.36762Z"/>
    <path class="cls-1" d="M17.25773,11.58514a.42862.42862,0,1,0,0-.85724H3.93424a.4286.4286,0,0,0-.42863.42862V26.08175a.4286.4286,0,0,0,.42863.42862H7.64709a.42862.42862,0,0,0,0-.85724H4.36286v-14.068Z"/>
    <path class="cls-1" d="M17.8582,18.577V15.74342a1.41221,1.41221,0,0,0-1.41063-1.41063H13.75891l-.7901-.25963a.621.621,0,0,0-.8149.59V18.577a2.85324,2.85324,0,0,0,1.37577,2.43949v.473l-1.8824,1.56322a1.767,1.767,0,0,0-.63991,1.36331V25.653H9.47359a.42863.42863,0,0,0,0,.85725H26.06576a.42861.42861,0,0,0,.42863-.42863v-11.262a.42863.42863,0,0,0-.85725,0V25.65307H18.99257V24.416a1.7671,1.7671,0,0,0-.63991-1.3633l-1.8824-1.56322v-.466A2.85306,2.85306,0,0,0,17.8582,18.577ZM13.5566,15.1686a.42729.42729,0,0,0,.13379.02143h2.75724a.554.554,0,0,1,.55338.55339V16.606H13.01122V14.98944Zm-.54538,2.29462H17.001V18.577a1.99487,1.99487,0,1,1-3.98973,0V17.46322Zm5.1241,6.95278v1.23707H11.86468V24.416a.912.912,0,0,1,.33038-.70379l1.61014-1.33714a1.46815,1.46815,0,0,0,2.38954,0l1.61014,1.33714a.91219.91219,0,0,1,.33044.70379ZM15.613,21.51977a.613.613,0,0,1-1.22609,0v-.15911a2.83551,2.83551,0,0,0,1.226.00281v.1563Z"/>
    <path class="cls-1" d="M27.2335,4.62556H20.91537A2.37449,2.37449,0,0,0,18.5436,6.99739v6.93449a.73051.73051,0,0,0,.48114.69112.74455.74455,0,0,0,.25895.0468.73017.73017,0,0,0,.55618-.25814l.75317-.878h2.56808a.42862.42862,0,1,0,0-.85724H20.39605a.42853.42853,0,0,0-.3253.14956l-.66991.78089V6.99739a1.51631,1.51631,0,0,1,1.51453-1.51458H27.2335a1.51632,1.51632,0,0,1,1.51459,1.51458v4.1645a1.51633,1.51633,0,0,1-1.51459,1.51459H24.9878a.42862.42862,0,0,0,0,.85724h2.2457a2.37453,2.37453,0,0,0,2.37183-2.37183V6.99739A2.37454,2.37454,0,0,0,27.2335,4.62556Z"/>
  </g>
</svg>
