<svg id="Capa_1" data-name="Capa 1" xmlns="http://www.w3.org/2000/svg" viewBox="0 0 30 35">
  <defs>
    <style>
      .cls-1 {
        fill: #29235c;
      }
    </style>
  </defs>
  <g>
    <path class="cls-1" d="M22.72521,10.95834a.3614.3614,0,0,0-.36139.36139V27.54281a.02486.02486,0,0,1-.02486.02486H9.5924a.36139.36139,0,1,0,0,.72278H22.339a.74846.74846,0,0,0,.74765-.74764V11.31973A.36141.36141,0,0,0,22.72521,10.95834Z"/>
    <path class="cls-1" d="M23.884,6.7096H20.55731L19.34444,5.49672a1.12649,1.12649,0,0,0-.80181-.33214H6.116a.74846.74846,0,0,0-.74764.74765V27.54276a.74846.74846,0,0,0,.74764.74764H6.9134v.79737a.74846.74846,0,0,0,.74764.74765H23.884a.74846.74846,0,0,0,.74764-.74765V7.45729A.7485.7485,0,0,0,23.884,6.7096Zm-5.04626-.69744L22.239,9.41342h-3.3764a.02486.02486,0,0,1-.02486-.02486Zm5.07112,23.07566a.02486.02486,0,0,1-.02486.02487H7.661a.02486.02486,0,0,1-.02486-.02487v-.79737h.411a.36139.36139,0,0,0,0-.72278H6.116a.02486.02486,0,0,1-.02486-.02486V5.91223A.02486.02486,0,0,1,6.116,5.88736H18.11494v3.5012a.74846.74846,0,0,0,.74764.74764h3.86264a.3614.3614,0,0,0,.36139-.36139V9.70855a1.12653,1.12653,0,0,0-.33215-.8018L21.28009,7.43238H23.884a.02486.02486,0,0,1,.02486.02486V29.08782Z"/>
    <path class="cls-1" d="M12.5517,9.293a.36135.36135,0,0,0-.51105,0L9.9962,11.33751a.02494.02494,0,0,1-.03518,0l-.815-.815h.62738a.36139.36139,0,0,0,0-.72278H8.8198a.74186.74186,0,0,0-.32246.07416l-.19452-.19453a.36137.36137,0,0,0-.51105.51106l.2841.2841c-.00232.02395-.00367.04823-.00367.07281v2.31757a.74846.74846,0,0,0,.74765.74764h2.31757a.74846.74846,0,0,0,.74764-.74764V10.47075l.66664-.66664A.36135.36135,0,0,0,12.5517,9.293Zm-1.38942,3.57188a.02486.02486,0,0,1-.02486.02487H8.81985a.02486.02486,0,0,1-.02487-.02487v-1.6714l.655.655a.7484.7484,0,0,0,1.05733,0l.655-.655v1.6714Z"/>
    <path class="cls-1" d="M11.13742,14.82107H8.81985a.74846.74846,0,0,0-.74765.74764v2.31757a.74846.74846,0,0,0,.74765.74764h2.31757a.74846.74846,0,0,0,.74764-.74764V15.56871A.74849.74849,0,0,0,11.13742,14.82107Zm.02486,3.06521a.02486.02486,0,0,1-.02486.02486H8.81985a.02486.02486,0,0,1-.02487-.02486V15.56871a.02488.02488,0,0,1,.02487-.02487h2.31757a.02487.02487,0,0,1,.02486.02487Z"/>
    <path class="cls-1" d="M11.13742,19.84246H8.81985a.74846.74846,0,0,0-.74765.74764v2.31757a.74846.74846,0,0,0,.74765.74764h2.31757a.74849.74849,0,0,0,.74764-.74764V20.5901A.74846.74846,0,0,0,11.13742,19.84246Zm.02486,3.06521a.02486.02486,0,0,1-.02486.02486H8.81985a.02489.02489,0,0,1-.02487-.02486V20.5901a.02487.02487,0,0,1,.02487-.02486h2.31757a.02486.02486,0,0,1,.02486.02486Z"/>
    <path class="cls-1" d="M16.93132,10.57223H13.455a.36139.36139,0,0,0,0,.72278h3.47633a.36139.36139,0,0,0,0-.72278Z"/>
    <path class="cls-1" d="M20.02139,12.11729H13.455a.36139.36139,0,1,0,0,.72278h6.5664a.36139.36139,0,0,0,0-.72278Z"/>
    <path class="cls-1" d="M16.93132,15.59362H13.455a.36139.36139,0,1,0,0,.72278h3.47633a.36139.36139,0,0,0,0-.72278Z"/>
    <path class="cls-1" d="M20.02139,17.13863H13.455a.36139.36139,0,0,0,0,.72278h6.5664a.36139.36139,0,1,0,0-.72278Z"/>
    <path class="cls-1" d="M16.93132,20.615H13.455a.36139.36139,0,1,0,0,.72278h3.47633a.36139.36139,0,0,0,0-.72278Z"/>
    <path class="cls-1" d="M20.02139,22.16H13.455a.36139.36139,0,1,0,0,.72278h6.5664a.36139.36139,0,0,0,0-.72278Z"/>
  </g>
</svg>
