<svg id="Capa_1" data-name="Capa 1" xmlns="http://www.w3.org/2000/svg" viewBox="0 0 30 35">
  <defs>
    <style>
      .cls-1 {
        fill: #29235c;
      }
    </style>
  </defs>
  <g>
    <path class="cls-1" d="M24.38261,8.11739A13.26913,13.26913,0,1,0,28.269,17.5,13.18242,13.18242,0,0,0,24.38261,8.11739ZM15,29.214A11.714,11.714,0,1,1,26.714,17.5,11.72728,11.72728,0,0,1,15,29.214Z"/>
    <path class="cls-1" d="M15,7.34094A10.15906,10.15906,0,1,0,25.15906,17.5,10.17055,10.17055,0,0,0,15,7.34094ZM15,26.1041A8.6041,8.6041,0,1,1,23.6041,17.5,8.61383,8.61383,0,0,1,15,26.1041Z"/>
    <polygon class="cls-1" points="15.777 16.723 15.777 10.451 14.223 10.451 14.223 18.277 22.049 18.277 22.049 16.723 15.777 16.723"/>
    <rect class="cls-1" x="14.22252" y="22.99418" width="1.55496" height="1.55496"/>
    <rect class="cls-1" x="17.35801" y="22.15441" width="1.55492" height="1.55492" transform="translate(-9.03638 12.14037) rotate(-30.00073)"/>
    <rect class="cls-1" x="19.65445" y="19.85877" width="1.55492" height="1.55492" transform="translate(-7.65564 28.01231) rotate(-59.99927)"/>
    <rect class="cls-1" x="11.0865" y="11.29137" width="1.55492" height="1.55492" transform="matrix(0.86602, -0.50001, 0.50001, 0.86602, -4.445, 7.54911)"/>
    <rect class="cls-1" x="8.79131" y="13.58696" width="1.55492" height="1.55492" transform="translate(-7.65558 15.46879) rotate(-59.99927)"/>
    <rect class="cls-1" x="7.95086" y="16.72252" width="1.55496" height="1.55496"/>
    <rect class="cls-1" x="8.79072" y="19.85857" width="1.55492" height="1.55492" transform="translate(-9.03629 7.54903) rotate(-30.00073)"/>
    <rect class="cls-1" x="11.08697" y="22.15444" width="1.55492" height="1.55492" transform="translate(-13.92737 21.74052) rotate(-59.99927)"/>
  </g>
</svg>
