<svg id="Capa_1" data-name="Capa 1" xmlns="http://www.w3.org/2000/svg" viewBox="0 0 30 35">
  <defs>
    <style>
      .cls-1 {
        fill: #29235c;
      }
    </style>
  </defs>
  <path class="cls-1" d="M28.92478,11.56908H23.42919l-.19913-.66381a.51617.51617,0,0,0-.49407-.36766H17.57866a.51617.51617,0,0,0-.49407.36766l-.19913.66381H13.11454l-.19913-.66381a.51617.51617,0,0,0-.49407-.36766H7.264a.51617.51617,0,0,0-.49407.36766l-.19913.66381H1.07522a.51543.51543,0,0,0-.51573.51513v2.06353a.51543.51543,0,0,0,.51514.51573H1.591v9.28319a.51543.51543,0,0,0,.51513.51573H3.13815a.5154.5154,0,0,0,.51271-.46184l.98287-9.33708H5.64246L5.22274,16.0626a.52389.52389,0,0,0-.02166.14807v1.5472a1.544,1.544,0,0,0,1.07217,1.46482L6.7508,23.998a.51582.51582,0,0,0,.51321.46436H8.29548a.51582.51582,0,0,0,.51321-.46436l.4693-4.693h1.12937l.4693,4.693a.51582.51582,0,0,0,.51321.46436h1.03147a.51582.51582,0,0,0,.51321-.46436l.47752-4.77534a1.544,1.544,0,0,0,1.0722-1.46482v-1.5472a.52389.52389,0,0,0-.02166-.14807l-.41972-1.39913h1.91422l-.41972,1.39913a.52389.52389,0,0,0-.02166.14807v1.5472a1.544,1.544,0,0,0,1.07217,1.46482l.47755,4.77534a.51582.51582,0,0,0,.51321.46436h1.03147a.51582.51582,0,0,0,.51321-.46436l.4693-4.693H20.722l.4693,4.693a.51582.51582,0,0,0,.51321.46436H22.736a.51582.51582,0,0,0,.51321-.46436l.47752-4.77534a1.544,1.544,0,0,0,1.0722-1.46482v-1.5472a.52389.52389,0,0,0-.02166-.14807l-.41972-1.39913h1.00873l.98287,9.33708a.5154.5154,0,0,0,.51271.46184h1.03146a.51543.51543,0,0,0,.51573-.51514V14.66347h.51574a.51544.51544,0,0,0,.51573-.51514V12.08481a.51543.51543,0,0,0-.51514-.51573ZM2.67379,23.43092H2.62242V14.66347h.97452ZM1.591,13.632V12.60054H6.26135L5.95192,13.632ZM7.8286,23.43092H7.73089l-.41267-4.12586h.92305Zm4.02815,0-.41267-4.12586h.92305l-.41267,4.12586Zm1.59605-5.673a.51608.51608,0,0,1-.51573.51573H6.74828a.51608.51608,0,0,1-.51573-.51573V16.28622l1.41524-4.71714h4.38977l1.41524,4.71714Zm.28063-4.12586L13.424,12.60054h3.152L16.26657,13.632Zm4.40982,9.79891h-.09771l-.41267-4.12586h.92305Zm4.02815,0-.41267-4.12586h.92305l-.41267,4.12586Zm1.59605-5.673a.51608.51608,0,0,1-.51573.51573H17.06293a.51608.51608,0,0,1-.51573-.51573V16.28622l1.41524-4.71714h4.38977l1.41524,4.71714Zm3.61013,5.67305h-.05137l-.92315-8.76745h.97452ZM28.409,13.632h-4.361l-.30943-1.03147H28.409Z"/>
</svg>
