<svg id="Capa_1" data-name="Capa 1" xmlns="http://www.w3.org/2000/svg" viewBox="0 0 30 35">
  <defs>
    <style>
      .cls-1 {
        fill: #29235c;
      }
    </style>
  </defs>
  <path class="cls-1" d="M17.87533,8.55865a2.84086,2.84086,0,0,1-.31554,1.30553A3.09124,3.09124,0,0,1,20.073,12.89177v2.737h1.48735a1.68632,1.68632,0,0,1,0,3.37264h-1.0491v3.00111H27.827a.38731.38731,0,0,0,.387-.38693V8.31307a.38731.38731,0,0,0-.387-.387H17.87533Zm-.82226-.80352A3.16566,3.16566,0,0,1,14.397,7.05266a2.34319,2.34319,0,0,1-1.44852.34038V8.5587a2.05231,2.05231,0,0,0,4.1046,0Zm-4.1046-1.189a1.49914,1.49914,0,0,0,1.22784-.35908.41054.41054,0,0,1,.57817.042,2.341,2.341,0,0,0,2.29864.67456V5.918a.97119.97119,0,0,0-.96827-.96828H13.91516a.97111.97111,0,0,0-.96669.96828Zm6.7406,12.43518H15.93094a.41188.41188,0,0,1,0-.82375h5.62939a.86336.86336,0,0,0,0-1.72672H8.43962a.86336.86336,0,0,0,0,1.72672H14.069a.41188.41188,0,0,1,0,.82375h-3.7566v10.6618a.38731.38731,0,0,0,.387.387H14.069a.41108.41108,0,1,1,0,.82216H10.69939a1.20986,1.20986,0,0,1-1.2092-1.2092V22.82468H2.173a1.21268,1.21268,0,0,1-1.20919-1.2092V8.31307A1.21512,1.21512,0,0,1,2.173,7.10234h9.95165V5.918A1.79628,1.79628,0,0,1,13.9151,4.12766h2.16969A1.79374,1.79374,0,0,1,17.87528,5.918V7.10239h9.95165a1.21258,1.21258,0,0,1,1.20925,1.21068V21.61548a1.20995,1.20995,0,0,1-1.20919,1.2092H20.51128v6.83847a1.21247,1.21247,0,0,1-1.20914,1.20919H15.93105a.41108.41108,0,0,1,0-.82215h3.37109a.39006.39006,0,0,0,.387-.387V19.00135Zm-10.19877,0H8.43967a1.68632,1.68632,0,0,1,0-3.37263H9.92861v-2.737a3.09115,3.09115,0,0,1,2.51313-3.0276,2.84135,2.84135,0,0,1-.31707-1.30553v-.6325H2.173a.38445.38445,0,0,0-.272.11344.38016.38016,0,0,0-.115.27354V21.61548a.39006.39006,0,0,0,.387.38693H9.4903ZM13.121,20.6954h3.75955a1.21248,1.21248,0,0,1,1.20926,1.21073v5.23922a1.20986,1.20986,0,0,1-1.20926,1.2092H13.121a1.21248,1.21248,0,0,1-1.21079-1.2092V21.90613A1.21511,1.21511,0,0,1,13.121,20.6954Zm3.75955.82375H13.121a.38731.38731,0,0,0-.387.387v5.23922a.39087.39087,0,0,0,.11344.27355.38529.38529,0,0,0,.27355.11344h3.75955a.39006.39006,0,0,0,.387-.387V21.90613a.37991.37991,0,0,0-.115-.27354A.38442.38442,0,0,0,16.88057,21.51915Zm8.90416-2.44636a.41108.41108,0,1,1,.82215,0v.50048h.50048a.41108.41108,0,0,1,0,.82216h-.50048v.50042a.41108.41108,0,0,1-.82215,0v-.50042h-.50048a.41108.41108,0,1,1,0-.82216h.50048ZM4.96594,9.69317a.4119.4119,0,0,1,.8238,0V11.106H7.20093a.41108.41108,0,0,1,0,.82215H5.78974v1.41119a.4119.4119,0,0,1-.8238,0V11.92815H3.55475a.41108.41108,0,0,1,0-.82215H4.96594Zm10.83917,1.62414.6994,2.064a.41031.41031,0,0,1-.1197.44142L15.27979,14.85a.4103.4103,0,0,1-.55952,0l-1.11435-1.03665a.41035.41035,0,0,1-.11037-.43205l.70094-2.064a2.87249,2.87249,0,0,1-1.17965-.68224,2.26587,2.26587,0,0,0-2.26613,2.2567v2.737h1.24955v-2.8551a.41114.41114,0,1,1,.82227,0v2.8551H17.179v-2.8551a.41111.41111,0,1,1,.82222,0v2.8551h1.24955v-2.737a2.26579,2.26579,0,0,0-2.26608-2.2567A2.88019,2.88019,0,0,1,15.80511,11.31731Zm-.16323,2.07642L15,11.50076l-.64188,1.893L15,13.989Z"/>
</svg>
