<svg id="Capa_1" data-name="Capa 1" xmlns="http://www.w3.org/2000/svg" viewBox="0 0 30 35">
  <defs>
    <style>
      .cls-1 {
        fill: #29235c;
      }
    </style>
  </defs>
  <g>
    <path class="cls-1" d="M19.52529,16.73267H17.35571V14.56308a.79237.79237,0,0,0-.787-.79764H13.43662a.79234.79234,0,0,0-.79232.79233v2.16958H10.48a.79232.79232,0,0,0-.79765.78694v3.13215a.79234.79234,0,0,0,.79233.79232h2.16958V23.603a.79236.79236,0,0,0,.787.79764h3.12676a.79235.79235,0,0,0,.79233-.79232h0V21.43876H19.52a.79236.79236,0,0,0,.79765-.787V17.525A.79231.79231,0,0,0,19.52529,16.73267Zm-.2712,3.64257H16.82394a.53178.53178,0,0,0-.53176.53176v2.43015H13.70782V20.907a.53178.53178,0,0,0-.53176-.53176H10.74591V17.79619h2.43015a.53178.53178,0,0,0,.53176-.53176V14.829h2.579v2.43015a.53179.53179,0,0,0,.53176.53177h2.43547Z"/>
    <path class="cls-1" d="M24.25265,9.78786H19.87094V7.91606a1.54744,1.54744,0,0,0-1.49665-1.59655q-.06531-.00209-.13055.00127H11.75625a1.5475,1.5475,0,0,0-1.62593,1.46473q-.00339.06522-.00126.13055V9.77723H5.74735a3.44873,3.44873,0,0,0-3.66916,3.66915V25.0122a3.44873,3.44873,0,0,0,3.66916,3.66916h18.5053a3.44873,3.44873,0,0,0,3.66916-3.66916V13.457A3.44622,3.44622,0,0,0,24.25265,9.78786ZM11.19259,7.91606a.49867.49867,0,0,1,.569-.569h6.48217c.569,0,.569.40945.569.569V9.77723H11.19259ZM26.85828,25.0122a2.38915,2.38915,0,0,1-2.60563,2.60563H5.74735A2.39125,2.39125,0,0,1,3.14171,25.0122V13.457a2.38916,2.38916,0,0,1,2.60564-2.60563h18.5053A2.39125,2.39125,0,0,1,26.85829,13.457V25.0122Z"/>
  </g>
</svg>
